<?xml version="1.0" standalone="no"?>
<!DOCTYPE svg PUBLIC "-//W3C//DTD SVG 20010904//EN"
 "http://www.w3.org/TR/2001/REC-SVG-20010904/DTD/svg10.dtd">
<svg version="1.0" xmlns="http://www.w3.org/2000/svg"
 width="70.000000pt" height="70.000000pt" viewBox="0 0 70.000000 70.000000"
 preserveAspectRatio="xMidYMid meet">

<g transform="translate(0.000000,70.000000) scale(0.100000,-0.100000)"
fill="#000000" stroke="none">
<path d="M130 610 c0 -14 -7 -20 -22 -20 -42 0 -52 -14 -44 -61 9 -59 30 -87
77 -108 21 -10 52 -36 69 -59 16 -23 42 -49 57 -59 38 -24 42 -32 32 -62 -10
-27 -79 -71 -111 -71 -15 0 -18 -9 -18 -50 l0 -50 170 0 170 0 0 50 c0 46 -2
50 -24 50 -13 0 -29 7 -36 15 -7 8 -18 15 -26 15 -21 0 -44 30 -44 59 0 19 8
32 29 44 16 9 42 37 57 61 19 31 37 46 57 50 45 9 84 56 92 110 8 52 0 66 -42
66 -16 0 -23 6 -23 20 0 19 -7 20 -210 20 -203 0 -210 -1 -210 -20z m403 -27
c-12 -80 -65 -197 -108 -240 -37 -37 -48 -43 -85 -43 -60 0 -105 36 -141 114
-28 61 -61 190 -51 201 3 3 92 5 198 5 l193 0 -6 -37z m-384 -69 c7 -31 15
-63 18 -70 8 -22 -23 -16 -52 9 -20 17 -28 35 -32 70 -6 46 -5 47 23 47 27 0
30 -4 43 -56z m448 9 c-5 -51 -40 -93 -76 -93 -18 0 -17 3 3 70 20 65 23 70
50 70 28 0 29 -1 23 -47z m-231 -280 c6 -27 18 -42 39 -53 l30 -15 -47 -3
c-27 -2 -69 -2 -95 0 -46 3 -47 4 -21 15 30 13 48 41 48 72 0 38 35 25 46 -16z
m124 -129 l0 -35 -151 3 -152 3 -3 32 -4 32 133 3 c176 4 177 4 177 -38z"/>
<path d="M330 530 c-6 -11 -20 -20 -30 -20 -24 0 -26 -13 -5 -30 9 -7 13 -21
9 -34 -5 -21 -2 -22 44 -22 44 0 48 2 44 21 -2 12 4 27 12 34 23 19 20 31 -8
31 -16 0 -27 7 -31 20 -3 11 -10 20 -15 20 -5 0 -14 -9 -20 -20z m30 -20 c0
-5 7 -10 15 -10 18 0 18 -1 3 -31 -14 -25 -58 -35 -58 -13 0 7 -3 19 -6 28 -4
11 -1 16 10 16 9 0 16 5 16 10 0 6 5 10 10 10 6 0 10 -4 10 -10z"/>
</g>
</svg>
