<?xml version="1.0" standalone="no"?>
<!DOCTYPE svg PUBLIC "-//W3C//DTD SVG 20010904//EN"
 "http://www.w3.org/TR/2001/REC-SVG-20010904/DTD/svg10.dtd">
<svg version="1.0" xmlns="http://www.w3.org/2000/svg"
 width="70.000000pt" height="70.000000pt" viewBox="0 0 70.000000 70.000000"
 preserveAspectRatio="xMidYMid meet">

<g transform="translate(0.000000,70.000000) scale(0.100000,-0.100000)"
fill="#000000" stroke="none">
<path d="M260 571 l0 -58 -50 -7 c-31 -4 -60 -16 -79 -32 -33 -28 -56 -92 -47
-130 6 -21 3 -24 -24 -24 -16 0 -30 -4 -30 -10 0 -5 16 -10 35 -10 19 0 35 -4
35 -10 0 -22 70 -86 154 -141 49 -33 93 -59 97 -59 5 0 46 24 91 53 78 51 158
125 158 147 0 6 16 10 35 10 19 0 35 5 35 10 0 6 -12 10 -28 10 -26 0 -27 2
-24 43 7 82 -71 153 -155 143 l-43 -6 0 36 c0 46 -16 36 -23 -15 -2 -21 -14
-48 -26 -60 l-21 -21 -24 25 c-17 17 -27 44 -36 94 -6 39 -16 71 -21 71 -5 0
-9 -26 -9 -59z m17 -63 c-3 -8 -6 -5 -6 6 -1 11 2 17 5 13 3 -3 4 -12 1 -19z
m-26 -98 c-1 -41 -5 -78 -7 -82 -3 -4 -36 -8 -75 -8 l-69 0 0 40 c0 79 50 132
119 127 l34 -2 -2 -75z m321 41 c23 -25 28 -41 28 -81 l0 -50 -59 0 c-52 0
-62 -3 -79 -25 -11 -14 -23 -25 -26 -25 -9 0 -7 205 2 214 4 4 29 6 56 3 40
-3 55 -11 78 -36z m-263 -108 c12 -76 21 -146 21 -155 0 -10 4 -18 9 -18 10 0
16 28 48 200 l18 95 6 -55 c4 -30 8 -84 8 -120 l2 -65 33 38 c32 36 37 38 88
35 l53 -3 -56 -55 c-30 -30 -85 -73 -121 -96 l-66 -41 -89 57 c-82 53 -143
109 -143 131 0 5 31 9 69 9 l69 0 7 90 c4 50 11 90 15 90 4 0 17 -62 29 -137z
m55 86 c12 10 16 10 16 1 0 -20 -32 -191 -36 -188 -4 5 -34 181 -34 203 0 18
2 18 19 -5 16 -20 21 -22 35 -11z"/>
</g>
</svg>
